<svg xmlns="http://www.w3.org/2000/svg" width="152.871" height="32.616" viewBox="0 0 152.871 32.616">
  <g id="그룹_625" data-name="그룹 625" transform="translate(-328.669 -488.776)">
    <g id="그룹_514" data-name="그룹 514" transform="translate(328.669 488.776)">
      <path id="패스_67" data-name="패스 67" d="M351.692,518.622a9.524,9.524,0,0,1-13.43,0l-6.824-6.823a9.525,9.525,0,0,1,0-13.431l6.824-6.823a9.524,9.524,0,0,1,13.43,0l6.823,6.823a9.527,9.527,0,0,1,0,13.431Z" transform="translate(-328.669 -488.776)" fill="#ff2a0c"/>
      <g id="그룹_513" data-name="그룹 513" transform="translate(11.254 5.898)">
        <g id="그룹_511" data-name="그룹 511" transform="translate(0 18.415)">
          <path id="패스_68" data-name="패스 68" d="M342.788,519.119a1.01,1.01,0,1,1,.043,0Z" transform="translate(-341.78 -517.103)" fill="#fff"/>
        </g>
        <g id="그룹_512" data-name="그룹 512" transform="translate(0.368)">
          <path id="패스_69" data-name="패스 69" d="M346.519,497.455a1.826,1.826,0,0,0-1.355.53c-.773.768-1.179,2.356-1.143,4.469.044,2.6.663,7.714,2.713,10.346a4.5,4.5,0,0,0,1.062,1.012,2.345,2.345,0,0,0,1.4.471,3.149,3.149,0,0,0,.548-.051,7.4,7.4,0,0,0,3.74-3.329.9.9,0,0,1,.767-.424.915.915,0,0,1,.482.139.907.907,0,0,1,.283,1.248c-1.383,2.2-3.211,3.746-4.887,4.134a.232.232,0,0,1-.041.009,5.067,5.067,0,0,1-.9.085,4.179,4.179,0,0,1-2.387-.771,6.342,6.342,0,0,1-1.493-1.411c-2.884-3.7-3.08-10.648-3.1-11.427-.031-1.849.236-4.352,1.68-5.785a3.587,3.587,0,0,1,2.623-1.053h.167a3.587,3.587,0,0,1,2.626,1.053c1.445,1.433,1.711,3.936,1.679,5.785a18.685,18.685,0,0,1-2.381,9,.91.91,0,0,1-.778.442.894.894,0,0,1-.463-.129.909.909,0,0,1-.314-1.241,15.671,15.671,0,0,0,2.126-8.1c.037-2.115-.369-3.7-1.142-4.469a1.821,1.821,0,0,0-1.354-.53Z" transform="translate(-342.208 -495.647)" fill="#fff"/>
        </g>
      </g>
    </g>
    <g id="그룹_518" data-name="그룹 518" transform="translate(369.404 499.017)">
      <g id="그룹_516" data-name="그룹 516" transform="translate(0 0.057)">
        <g id="그룹_515" data-name="그룹 515">
          <path id="패스_70" data-name="패스 70" d="M395.462,500.775c-4.469,0-7.145,2.759-7.145,6.171s2.676,6.165,7.145,6.165,7.154-2.756,7.154-6.165-2.683-6.171-7.154-6.171m0,11.015c-2.141,0-3.771-2.175-3.771-4.844s1.631-4.843,3.771-4.843,3.773,2.167,3.773,4.843-1.627,4.844-3.773,4.844" transform="translate(-377.856 -500.775)" fill="#ff2a0c"/>
          <path id="패스_71" data-name="패스 71" d="M405.681,502.668h4.708v10.01h3.548v-10.01h3.969V501.3H405.681Z" transform="translate(-380.316 -500.85)" fill="#ff2a0c"/>
          <path id="패스_72" data-name="패스 72" d="M421.435,502.668H425.4v10.01h3.543v-10.01h4.712V501.3H421.435Z" transform="translate(-382.549 -500.85)" fill="#ff2a0c"/>
          <path id="패스_73" data-name="패스 73" d="M379.531,510.641V501.3h-3.4v10.018a1.355,1.355,0,0,0,1.355,1.356h8.7v-1.362h-5.971a.679.679,0,0,1-.681-.675" transform="translate(-376.129 -500.85)" fill="#ff2a0c"/>
          <path id="패스_74" data-name="패스 74" d="M437.917,502.657v8.665a1.355,1.355,0,0,0,1.357,1.354h9.277v-1.344H442a.674.674,0,0,1-.675-.675v-3.353h7.116v-1.334h-7.116v-2.649a.67.67,0,0,1,.675-.672h6.547V501.3h-9.277a1.353,1.353,0,0,0-1.357,1.353" transform="translate(-384.884 -500.85)" fill="#ff2a0c"/>
        </g>
      </g>
      <g id="그룹_517" data-name="그룹 517" transform="translate(69.18)">
        <path id="패스_75" data-name="패스 75" d="M470.785,512.667h-2.991v-1.148a3.411,3.411,0,0,1-1.365,1.064,6.219,6.219,0,0,1-2.432.481,8.125,8.125,0,0,1-2.8-.391,7.038,7.038,0,0,1-2.317-1.262,6.063,6.063,0,0,1-1.571-1.98,5.657,5.657,0,0,1-.574-2.561,6.029,6.029,0,0,1,.484-2.409,5.57,5.57,0,0,1,1.414-1.958,6.78,6.78,0,0,1,2.285-1.314,9.183,9.183,0,0,1,3.084-.482,8.5,8.5,0,0,1,4.388,1.032,6.235,6.235,0,0,1,2.565,2.852h-3.486a5.245,5.245,0,0,0-1.366-1.881,3.093,3.093,0,0,0-2.087-.735,3.043,3.043,0,0,0-1.5.391,3.986,3.986,0,0,0-1.226,1.055,5.329,5.329,0,0,0-.822,1.553,5.827,5.827,0,0,0-.3,1.9,5.994,5.994,0,0,0,.3,1.9,5.175,5.175,0,0,0,.814,1.56,3.921,3.921,0,0,0,1.217,1.047,3.116,3.116,0,0,0,1.52.382,4.169,4.169,0,0,0,1.4-.238,3.47,3.47,0,0,0,1.183-.694,3.426,3.426,0,0,0,.822-1.148,3.849,3.849,0,0,0,.312-1.606h-3.5v-1.33h5.491a1.053,1.053,0,0,1,.8.283.945.945,0,0,1,.271.68Z" transform="translate(-456.73 -500.708)" fill="#ff2a0c"/>
        <path id="패스_76" data-name="패스 76" d="M479.781,505.926h7.381v1.347h-7.381v5.382h-3.536V502.96a2.479,2.479,0,0,1,.132-.887,1.191,1.191,0,0,1,.354-.512,1.153,1.153,0,0,1,.518-.229,3.377,3.377,0,0,1,.608-.053h9.4v1.361h-6.424a4.864,4.864,0,0,0-.5.022.721.721,0,0,0-.328.107.45.45,0,0,0-.173.267,2.1,2.1,0,0,0-.048.5Z" transform="translate(-459.495 -500.789)" fill="#ff2a0c"/>
        <path id="패스_77" data-name="패스 77" d="M500.946,512.655c-.046-.153-.09-.311-.132-.474s-.086-.344-.124-.543-.076-.421-.115-.664-.073-.536-.107-.872a1.948,1.948,0,0,0-.4-1.07,2.357,2.357,0,0,0-.837-.65,3.8,3.8,0,0,0-1.111-.321,8.772,8.772,0,0,0-1.2-.085h-1.743v4.679h-3.568v-9.71a2.377,2.377,0,0,1,.141-.887,1.157,1.157,0,0,1,.37-.5,1.28,1.28,0,0,1,.526-.221,3.372,3.372,0,0,1,.609-.053h6.017a10.453,10.453,0,0,1,2.762.3,4.633,4.633,0,0,1,1.627.757,2.3,2.3,0,0,1,.773,1.017,3.22,3.22,0,0,1,.2,1.062,2.81,2.81,0,0,1-.765,2,3.965,3.965,0,0,1-2.507,1.01,3.989,3.989,0,0,1,1.257.3,2.065,2.065,0,0,1,.772.58,2.459,2.459,0,0,1,.428.827,6.06,6.06,0,0,1,.205,1.016c.054.52.124,1,.205,1.43a4.218,4.218,0,0,0,.337,1.078Zm-3.5-6.04a6.254,6.254,0,0,0,2.738-.459,1.65,1.65,0,0,0,.9-1.605,1.956,1.956,0,0,0-.14-.742,1.421,1.421,0,0,0-.484-.6,2.688,2.688,0,0,0-.905-.413,5.376,5.376,0,0,0-1.4-.153h-1.99a2.652,2.652,0,0,0-.494.038.566.566,0,0,0-.312.161.7.7,0,0,0-.162.336,2.549,2.549,0,0,0-.049.551v2.89Z" transform="translate(-461.672 -500.789)" fill="#ff2a0c"/>
      </g>
    </g>
  </g>
</svg>
