<svg xmlns="http://www.w3.org/2000/svg" width="131.194" height="131.197" viewBox="0 0 131.194 131.197">
  <g id="그룹_514" data-name="그룹 514" transform="translate(0 0.001)">
    <path id="패스_67" data-name="패스 67" d="M421.279,608.83a38.311,38.311,0,0,1-54.021,0l-27.447-27.444a38.315,38.315,0,0,1,0-54.025l27.447-27.444a38.311,38.311,0,0,1,54.021,0l27.444,27.444a38.321,38.321,0,0,1,0,54.025Z" transform="translate(-328.669 -488.776)" fill="#ff2a0c"/>
    <g id="그룹_513" data-name="그룹 513" transform="translate(45.267 23.723)">
      <g id="그룹_511" data-name="그룹 511" transform="translate(0 74.075)">
        <path id="패스_68" data-name="패스 68" d="M345.833,525.214a4.061,4.061,0,1,1,.173,0C345.947,525.214,345.888,525.214,345.833,525.214Z" transform="translate(-341.78 -517.103)" fill="#fff"/>
      </g>
      <g id="그룹_512" data-name="그룹 512" transform="translate(1.478)">
        <path id="패스_69" data-name="패스 69" d="M359.549,502.918a7.343,7.343,0,0,0-5.451,2.134c-3.111,3.09-4.744,9.477-4.6,17.977.176,10.475,2.665,31.031,10.913,41.616a18.088,18.088,0,0,0,4.271,4.07,9.431,9.431,0,0,0,5.617,1.9,12.675,12.675,0,0,0,2.206-.207c4.723-1.136,10.644-6.394,15.042-13.392a3.62,3.62,0,0,1,3.087-1.706,3.682,3.682,0,0,1,1.937.559,3.65,3.65,0,0,1,1.139,5.02c-5.562,8.856-12.916,15.07-19.658,16.63a.935.935,0,0,1-.166.038,20.388,20.388,0,0,1-3.615.342,16.81,16.81,0,0,1-9.6-3.1,25.506,25.506,0,0,1-6-5.676c-11.6-14.9-12.391-42.831-12.45-45.966-.124-7.437.949-17.508,6.756-23.27a14.429,14.429,0,0,1,10.551-4.236h.673a14.429,14.429,0,0,1,10.561,4.236c5.811,5.762,6.881,15.833,6.753,23.27-.131,7.744-1.55,22.745-9.577,36.192a3.661,3.661,0,0,1-3.128,1.778,3.594,3.594,0,0,1-1.864-.518,3.656,3.656,0,0,1-1.264-4.992c5.621-9.411,8.345-19.766,8.552-32.584.148-8.507-1.485-14.891-4.6-17.977a7.324,7.324,0,0,0-5.448-2.134Z" transform="translate(-342.208 -495.647)" fill="#fff"/>
      </g>
    </g>
  </g>
</svg>
